<?xml version="1.0" encoding="utf-8"?>
<!-- Generator: Adobe Illustrator 26.3.1, SVG Export Plug-In . SVG Version: 6.00 Build 0)  -->
<svg version="1.1" xmlns="http://www.w3.org/2000/svg" xmlns:xlink="http://www.w3.org/1999/xlink" x="0px" y="0px"
	 viewBox="0 0 600 600" style="enable-background:new 0 0 600 600;" xml:space="preserve">
<style type="text/css">
	.st0{display:none;}
	.st1{display:inline;fill:#ED2024;}
	.st2{fill:#FFFFFF;}
</style>
<g id="Layer_2" class="st0">
	<rect x="-44.3" y="23.9" class="st1" width="885.1" height="530.4"/>
</g>
<g id="Layer_1" class="st0">
	
		<image style="display:inline;overflow:visible;" width="500" height="500" xlink:href="Youtube Assets/Youtube Video Icon.png"  transform="matrix(1 0 0 1 46.2162 50)">
	</image>
</g>
<g id="Layer_3">
	<path class="st2" d="M255.9,219c-21.4,0-38.7,17.3-38.7,38.7s17.3,38.7,38.7,38.7s38.7-17.3,38.7-38.7S277.3,219,255.9,219z
		 M255.9,285.2c-15.2,0-27.6-12.4-27.6-27.6s12.4-27.6,27.6-27.6s27.6,12.4,27.6,27.6S271.2,285.2,255.9,285.2z"/>
	<path class="st2" d="M333.3,301.9c-21.4,0-38.7,17.3-38.7,38.7s17.3,38.7,38.7,38.7s38.7-17.3,38.7-38.7S354.7,301.9,333.3,301.9z
		 M333.3,368.2c-15.2,0-27.6-12.4-27.6-27.6s12.4-27.6,27.6-27.6s27.6,12.4,27.6,27.6S348.5,368.2,333.3,368.2z"/>
	<path class="st2" d="M433.5,204.8c-21.4,0-38.7,17.3-38.7,38.7s17.3,38.7,38.7,38.7s38.7-17.3,38.7-38.7S454.8,204.8,433.5,204.8z
		 M433.5,271.1c-15.2,0-27.6-12.4-27.6-27.6s12.4-27.6,27.6-27.6s27.6,12.4,27.6,27.6S448.7,271.1,433.5,271.1z"/>
	<path class="st2" d="M159.6,318.4c-21.4,0-38.7,17.3-38.7,38.7s17.3,38.7,38.7,38.7s38.7-17.3,38.7-38.7S180.9,318.4,159.6,318.4z
		 M159.6,384.6c-15.2,0-27.6-12.4-27.6-27.6s12.4-27.6,27.6-27.6s27.6,12.4,27.6,27.6S174.8,384.6,159.6,384.6z"/>
	
		<rect x="173.3" y="303" transform="matrix(0.7071 -0.7071 0.7071 0.7071 -157.7906 237.751)" class="st2" width="69.6" height="12.6"/>
	
		<rect x="348.6" y="285.5" transform="matrix(0.7071 -0.7071 0.7071 0.7071 -94.0689 356.5446)" class="st2" width="69.6" height="12.6"/>
	
		<rect x="269.3" y="294.1" transform="matrix(-0.7071 -0.7071 0.7071 -0.7071 291.8887 721.7175)" class="st2" width="52.2" height="12.6"/>
	<g>
	</g>
	<g>
	</g>
	<g>
	</g>
	<g>
	</g>
	<g>
	</g>
	<g>
	</g>
</g>
</svg>
