<?xml version="1.0" encoding="UTF-8"?>
<svg id="Layer_1" data-name="Layer 1" xmlns="http://www.w3.org/2000/svg" viewBox="0 0 1080 1080">
  <defs>
    <style>
      .cls-1 {
        fill: #043927;
      }

      .cls-2 {
        fill: #124432;
      }

      .cls-3 {
        fill: #2b5848;
      }

      .cls-4 {
        fill: #fefefe;
      }
    </style>
  </defs>
  <path class="cls-1" d="M.19,540.02C.19,363.02,.24,186.02,0,9.02,0,1.97,.96,0,8.67,0,362.7,.27,716.73,.27,1070.75,0c8.1,0,9.25,2.04,9.25,9.52-.21,353.64-.21,707.27,0,1060.91,0,7.36-.98,9.58-9.19,9.57-354.03-.28-708.06-.27-1062.09-.02-7.62,0-8.72-1.82-8.71-8.97,.24-177,.19-353.99,.19-530.99Z"/>
  <path class="cls-4" d="M228.55,540.21c-39.46,.24-70.99-30.31-70.96-68.77,.02-38.28,32.01-69.67,70.71-69.41,38.63,.26,69.95,30.81,70.36,68.64,.42,38.53-30.61,69.31-70.11,69.55Z"/>
  <path class="cls-4" d="M693.42,540.19c-39.13-.6-69.82-31.29-69.26-69.24,.57-38.72,32.39-69.58,71.09-68.93,39.3,.66,70.52,32.07,69.76,70.19-.77,38.99-31.95,68.59-71.59,67.98Z"/>
  <path class="cls-4" d="M380.99,540.22c-39.8-.24-69.99-30.86-69.92-70.93,.06-36.05,33.01-67.39,70.7-67.25,39.48,.14,70.51,31.4,70.28,70.78-.22,37.56-31.92,67.63-71.06,67.4Z"/>
  <path class="cls-4" d="M850.04,540.19c-38.9-.6-69.7-31.06-69.57-68.81,.13-38.64,32.87-70.3,71.64-69.31,38.95,1,69.72,31.65,69.49,69.22-.24,39.24-31.68,69.52-71.56,68.9Z"/>
  <path class="cls-4" d="M694.6,107.48c39.33-.02,70.65,30.77,70.46,69.26-.19,38.22-32.24,69.4-71,69.08-38.45-.32-69.43-30.93-69.91-69.07-.48-38.21,31.08-69.24,70.45-69.26Z"/>
  <path class="cls-4" d="M850.69,107.5c39.18-.35,70.97,30.51,70.93,68.85-.04,38.13-32.02,69.51-70.77,69.45-38.23-.06-69.59-30.66-70.43-68.7-.83-37.77,30.95-69.25,70.27-69.6Z"/>
  <path class="cls-4" d="M538.03,540.21c-39.55,.05-70.28-30.25-70.25-69.25,.04-37.85,31.07-68.43,69.93-68.91,38.99-.48,71.46,31.66,70.96,70.24-.49,38.14-31.42,67.87-70.64,67.92Z"/>
  <path class="cls-4" d="M697.7,690.96c50.42,4.59,70.55,44.76,66.83,76.79-4.06,34.99-32.77,60.59-69.25,61.16-35.98,.56-65.68-24.69-70.34-59.8-4.61-34.77,17.02-66.56,51.42-75.55,3.46-.9,6.95-1.7,10.43-2.54,3.62-3.29,7.26-3.31,10.91-.06Z"/>
  <path class="cls-4" d="M820.83,682.09c-22.92-12.98-37.82-31.27-39.95-58.58-2.69-34.36,19.51-63.32,55.34-71.54,33.27-7.63,67.98,10.16,80.34,41.17,12.71,31.91,.28,68.07-29.22,85.05-2.14,1.23-4.21,2.61-6.31,3.91-20.06,9.7-40.13,9.91-60.19,0Z"/>
  <path class="cls-4" d="M857.43,691.03c29.23,4.62,51.01,18.95,60.62,48.02,11.99,36.29-8.03,74.89-44.12,86.06-39.5,12.22-78.95-7.66-90.46-45.59-11.08-36.5,9.97-74.51,47.34-85.34,4.47-1.3,9.09-2.09,13.64-3.11,4.32-2.1,8.65-2.68,12.99-.04Z"/>
  <path class="cls-4" d="M452.18,324.69c-.65,37.82-31.62,68.17-69.38,67.99-40.77-.19-72.09-30.34-71.7-69.02,.39-38.82,32.09-69.31,71.08-68.37,40.36,.97,70.66,31.01,70,69.4Z"/>
  <path class="cls-4" d="M765.04,324.06c-.1,38.64-31.41,68.98-70.84,68.63-39.61-.35-70.56-31.02-70.07-69.46,.49-38.29,31.06-67.83,70.35-67.98,39.6-.15,70.67,30.14,70.57,68.8Z"/>
  <path class="cls-4" d="M678.21,686.71c-30.04-9.46-49.41-28.43-53.39-60.69-4.43-35.91,20.02-67.95,56.62-74.6,37.52-6.82,72.11,14.63,81.4,50.47,8.96,34.57-10.36,70.34-44.24,81.91-2.69,.92-5.35,1.93-8.03,2.9-10.79,2.01-21.58,3.33-32.37,0Z"/>
  <path class="cls-4" d="M694.91,972.22c-39.62,.17-70.93-30.2-70.77-68.66,.15-38.35,31.95-69.44,70.72-69.15,38.72,.29,69.67,30.52,70.18,68.55,.52,38.49-30.47,69.1-70.13,69.27Z"/>
  <path class="cls-4" d="M780.57,902.94c.15-37.94,32.54-69.07,71.34-68.56,38.96,.51,70.1,31.9,69.69,70.26-.4,37.92-31.27,67.34-70.85,67.56-39.18,.21-70.32-30.52-70.17-69.26Z"/>
  <path class="cls-4" d="M538.65,550.54c39.94-.07,70.04,29.74,69.82,69.15-.22,37.87-30.97,67.69-70.3,68.17-38.8,.47-70.11-30.29-70.4-69.14-.29-38.59,30.4-68.1,70.88-68.18Z"/>
  <path class="cls-4" d="M467.78,323.81c-.23-38.49,30.71-68.48,70.73-68.56,39.25-.08,70.36,30.67,70.12,69.31-.23,37.95-30.82,67.56-70.34,68.11-39.21,.54-70.27-29.8-70.51-68.87Z"/>
  <path class="cls-4" d="M780.68,325.85c-2.11-37.71,27.44-67.98,68.74-70.42,37.98-2.24,69.67,26.83,71.97,66.05,2.23,37.91-26.96,68.33-68.16,71.04-38.09,2.5-70.34-27.14-72.56-66.67Z"/>
  <path class="cls-4" d="M467.81,905.04c-.98-38.34,29.09-69.03,69.12-70.55,38.15-1.45,70.21,29.04,71.66,68.14,1.4,37.73-29.86,68.91-69.8,69.61-39,.69-70-28.66-70.98-67.2Z"/>
  <path class="cls-2" d="M857.43,691.03c-4.33,.01-8.66,.03-12.99,.04-7.43-4.15-17.62-1.05-23.61-8.98,20.06,7.23,40.13,7.3,60.19,0-6,7.91-16.15,4.85-23.59,8.93Z"/>
  <path class="cls-3" d="M678.21,686.71c10.79,0,21.58,0,32.37,0-3.36,4.23-9.29,.68-12.87,4.24-3.64,.02-7.28,.04-10.91,.06-2.86-1.43-5.72-2.87-8.58-4.3Z"/>
</svg>